<svg xmlns="http://www.w3.org/2000/svg" width="1280" height="420" viewBox="0 0 1280 420" role="img" aria-label="Feishu MCP Skill"><defs>
  <linearGradient id="bg" x1="0" x2="1" y1="0" y2="1"><stop stop-color="#0c1730"/><stop offset="1" stop-color="#101f36"/></linearGradient>
  <linearGradient id="glow" x1="0" x2="1"><stop stop-color="#a9b4ff"/><stop offset="1" stop-color="#8496ff"/></linearGradient>
  <pattern id="grid" width="32" height="32" patternUnits="userSpaceOnUse"><circle cx="1" cy="1" r="1" fill="#33445f" opacity=".5"/></pattern>
 </defs>
 <rect width="1280" height="420" rx="24" fill="url(#bg)"/>
 <rect x="680" width="600" height="420" fill="url(#grid)"/>
 <path d="M0 419H1280" stroke="url(#glow)" stroke-width="3"/>
 <g font-family="-apple-system,BlinkMacSystemFont,'Segoe UI','PingFang SC','Microsoft YaHei',sans-serif">
  <rect x="64" y="51" width="224" height="31" rx="15" fill="#1b304b"/>
  <circle cx="81" cy="66" r="4" fill="#a9b4ff"/>
  <text x="94" y="71" font-size="12" letter-spacing="1.5" fill="#a9b4ff">AGENT SKILL</text>
  <text x="64" y="157" font-size="60" font-weight="700" letter-spacing="-1.5" fill="#f4f8ff">Feishu MCP Skill</text>
  <text x="66" y="212" font-size="25" fill="#b6c9e2">让 AI 理解工具，写好每一篇文档</text>
  <text x="66" y="291" font-size="14" letter-spacing="3" fill="#839ebf">KNOWLEDGE  /  DOCUMENTS  /  ACTIONS</text>
  <rect x="66" y="326" width="44" height="3" rx="1.5" fill="#a9b4ff"/>
  <text x="125" y="333" font-size="13" fill="#b6c9e2">Getting05 · Feishu MCP Ecosystem</text>
  <g stroke="#627fbd" stroke-width="2" fill="none"><path d="M920 106V168M920 251V291M853 213H820M988 213H1061"/><circle cx="920" cy="151" r="4" fill="#a9b4ff"/><circle cx="1034" cy="213" r="4" fill="#a9b4ff"/></g>
  <rect x="853" y="168" width="136" height="83" rx="20" fill="#243b57" stroke="#506c91"/>
  <g stroke="#a9b4ff" stroke-width="2.5" fill="none"><path d="M904 192H930L938 200V229H904Z"/><path d="M930 192V201H938M911 210H930M911 219H925"/></g>
  <rect x="845" y="62" width="150" height="45" rx="13" fill="#20344f" stroke="#456386"/>
  <text x="920" y="90" text-anchor="middle" font-size="14" font-weight="600" letter-spacing="1.5" fill="#c9def6">INTENT</text>
  <rect x="1061" y="190" width="154" height="46" rx="13" fill="#20344f" stroke="#456386"/>
  <text x="1138" y="218" text-anchor="middle" font-size="13" font-weight="600" letter-spacing="1.3" fill="#c9def6">TOOLS</text>
  <rect x="837" y="291" width="166" height="45" rx="13" fill="#20344f" stroke="#456386"/>
  <text x="920" y="319" text-anchor="middle" font-size="13" font-weight="600" letter-spacing="1.2" fill="#c9def6">DOCUMENT</text>
 </g></svg>